<mxfile host="Electron" modified="2024-09-16T08:50:14.559Z" agent="Mozilla/5.0 (X11; Linux x86_64) AppleWebKit/537.36 (KHTML, like Gecko) draw.io/24.2.5 Chrome/120.0.6099.109 Electron/28.1.0 Safari/537.36" etag="qYJMM5RXE2l2DvJqO494" version="24.2.5" type="device">
  <diagram name="Page-1" id="LjialnSXJTE5UOslRlPB">
    <mxGraphModel dx="1420" dy="821" grid="1" gridSize="10" guides="1" tooltips="1" connect="1" arrows="1" fold="1" page="1" pageScale="1" pageWidth="850" pageHeight="1100" math="0" shadow="0">
      <root>
        <mxCell id="0" />
        <mxCell id="1" parent="0" />
        <mxCell id="t7w0U8cKZIDYZXpymrYo-32" value="" style="shape=table;startSize=0;container=1;collapsible=0;childLayout=tableLayout;fontSize=16;rounded=1;shadow=0;strokeColor=#6c8ebf;strokeWidth=1;fontFamily=Ubuntu;fontStyle=0;fillColor=#dae8fc;" vertex="1" parent="1">
          <mxGeometry x="330" y="360" width="180" height="80" as="geometry" />
        </mxCell>
        <mxCell id="t7w0U8cKZIDYZXpymrYo-33" value="" style="shape=tableRow;horizontal=0;startSize=0;swimlaneHead=0;swimlaneBody=0;strokeColor=inherit;top=0;left=0;bottom=0;right=0;collapsible=0;dropTarget=0;fillColor=none;points=[[0,0.5],[1,0.5]];portConstraint=eastwest;fontSize=16;rounded=1;shadow=0;strokeWidth=1;fontFamily=Ubuntu;fontStyle=0;" vertex="1" parent="t7w0U8cKZIDYZXpymrYo-32">
          <mxGeometry width="180" height="40" as="geometry" />
        </mxCell>
        <mxCell id="t7w0U8cKZIDYZXpymrYo-34" value="1" style="shape=partialRectangle;html=1;whiteSpace=wrap;connectable=0;strokeColor=inherit;overflow=hidden;fillColor=none;top=0;left=0;bottom=0;right=0;pointerEvents=1;fontSize=16;rounded=1;shadow=0;strokeWidth=1;fontFamily=Ubuntu;fontStyle=0;" vertex="1" parent="t7w0U8cKZIDYZXpymrYo-33">
          <mxGeometry width="60" height="40" as="geometry">
            <mxRectangle width="60" height="40" as="alternateBounds" />
          </mxGeometry>
        </mxCell>
        <mxCell id="t7w0U8cKZIDYZXpymrYo-35" value="3" style="shape=partialRectangle;html=1;whiteSpace=wrap;connectable=0;strokeColor=inherit;overflow=hidden;fillColor=none;top=0;left=0;bottom=0;right=0;pointerEvents=1;fontSize=16;rounded=1;shadow=0;strokeWidth=1;fontFamily=Ubuntu;fontStyle=0;" vertex="1" parent="t7w0U8cKZIDYZXpymrYo-33">
          <mxGeometry x="60" width="60" height="40" as="geometry">
            <mxRectangle width="60" height="40" as="alternateBounds" />
          </mxGeometry>
        </mxCell>
        <mxCell id="t7w0U8cKZIDYZXpymrYo-36" value="5" style="shape=partialRectangle;html=1;whiteSpace=wrap;connectable=0;strokeColor=inherit;overflow=hidden;fillColor=none;top=0;left=0;bottom=0;right=0;pointerEvents=1;fontSize=16;rounded=1;shadow=0;strokeWidth=1;fontFamily=Ubuntu;fontStyle=0;" vertex="1" parent="t7w0U8cKZIDYZXpymrYo-33">
          <mxGeometry x="120" width="60" height="40" as="geometry">
            <mxRectangle width="60" height="40" as="alternateBounds" />
          </mxGeometry>
        </mxCell>
        <mxCell id="t7w0U8cKZIDYZXpymrYo-37" value="" style="shape=tableRow;horizontal=0;startSize=0;swimlaneHead=0;swimlaneBody=0;strokeColor=inherit;top=0;left=0;bottom=0;right=0;collapsible=0;dropTarget=0;fillColor=none;points=[[0,0.5],[1,0.5]];portConstraint=eastwest;fontSize=16;rounded=1;shadow=0;strokeWidth=1;fontFamily=Ubuntu;fontStyle=0;" vertex="1" parent="t7w0U8cKZIDYZXpymrYo-32">
          <mxGeometry y="40" width="180" height="40" as="geometry" />
        </mxCell>
        <mxCell id="t7w0U8cKZIDYZXpymrYo-38" value="4" style="shape=partialRectangle;html=1;whiteSpace=wrap;connectable=0;strokeColor=inherit;overflow=hidden;fillColor=none;top=0;left=0;bottom=0;right=0;pointerEvents=1;fontSize=16;rounded=1;shadow=0;strokeWidth=1;fontFamily=Ubuntu;fontStyle=0;" vertex="1" parent="t7w0U8cKZIDYZXpymrYo-37">
          <mxGeometry width="60" height="40" as="geometry">
            <mxRectangle width="60" height="40" as="alternateBounds" />
          </mxGeometry>
        </mxCell>
        <mxCell id="t7w0U8cKZIDYZXpymrYo-39" value="1" style="shape=partialRectangle;html=1;whiteSpace=wrap;connectable=0;strokeColor=inherit;overflow=hidden;fillColor=none;top=0;left=0;bottom=0;right=0;pointerEvents=1;fontSize=16;rounded=1;shadow=0;strokeWidth=1;fontFamily=Ubuntu;fontStyle=0;" vertex="1" parent="t7w0U8cKZIDYZXpymrYo-37">
          <mxGeometry x="60" width="60" height="40" as="geometry">
            <mxRectangle width="60" height="40" as="alternateBounds" />
          </mxGeometry>
        </mxCell>
        <mxCell id="t7w0U8cKZIDYZXpymrYo-40" value="3" style="shape=partialRectangle;html=1;whiteSpace=wrap;connectable=0;strokeColor=inherit;overflow=hidden;fillColor=none;top=0;left=0;bottom=0;right=0;pointerEvents=1;fontSize=16;rounded=1;shadow=0;strokeWidth=1;fontFamily=Ubuntu;fontStyle=0;" vertex="1" parent="t7w0U8cKZIDYZXpymrYo-37">
          <mxGeometry x="120" width="60" height="40" as="geometry">
            <mxRectangle width="60" height="40" as="alternateBounds" />
          </mxGeometry>
        </mxCell>
      </root>
    </mxGraphModel>
  </diagram>
</mxfile>
